<?xml version="1.0" encoding="UTF-8"?>
<svg width="46px" height="37px" viewBox="0 0 46 37" version="1.1" xmlns="http://www.w3.org/2000/svg" xmlns:xlink="http://www.w3.org/1999/xlink">
    <title>编组_9备份_slice</title>
    <g id="患者端" stroke="none" stroke-width="1" fill="none" fill-rule="evenodd">
        <g id="画板" transform="translate(-312.000000, -110.000000)" fill="#06B48D">
            <g id="编组-9备份" transform="translate(312.000000, 110.000000)">
                <path d="M27.7425532,4.05755397 L28.1353191,4.72082824 L27.3682269,4.62870682 L26.8574468,5.20907179 L26.7099291,4.44999123 L26,4.1441481 L26.6748936,3.7682927 L26.7486525,3 L27.3147517,3.52509215 L28.0689362,3.35743115 L27.7425532,4.05755397 L27.7425532,4.05755397 Z M37.9415603,23.6075627 L37.2777305,24 L37.3699291,23.2335498 L36.790922,22.7231971 L37.5487943,22.5739604 L37.8548936,21.8664678 L38.2310638,22.5407966 L39,22.6126513 L38.4744681,23.1782769 L38.6422695,23.9318302 L37.9415603,23.6075627 L37.9415603,23.6075627 Z" id="形状" fill-rule="nonzero"></path>
                <path d="M37.93845,22.7987184 L37.2726695,23.1886943 L37.365139,22.4270511 L36.7844304,21.9198993 L37.5445299,21.7715986 L37.8515286,21.0685433 L38.2288042,21.7386428 L39,21.8100469 L38.4729238,22.3721249 L38.6412183,23.120952 L37.93845,22.7987184 L37.93845,22.7987184 Z M20.045599,3.40061791 L19.4168063,2.95205399 L20.1584118,2.73051837 L20.3932844,2 L20.8352887,2.62982032 L21.6101832,2.62432773 L21.1422875,3.23583935 L21.386407,3.96452682 L20.6540484,3.71369723 L20.0308039,4.16775373 L20.045599,3.40061791 Z M35.2013524,27.8775604 L34.4357048,28.0020597 L34.8018841,27.3264675 L34.4468011,26.6435519 L35.2087499,26.7790365 L35.7543201,26.2334363 L35.8597353,26.9932487 L36.5514073,27.3374528 L35.8541871,27.6725025 L35.7376756,28.430484 L35.2013524,27.8775604 L35.2013524,27.8775604 Z M14.8469629,5.43105618 L14.0961105,5.24064538 L14.7064093,4.76644923 L14.6583251,4.00114427 L15.3000636,4.42773771 L16.0213258,4.14578326 L15.8086459,4.88362512 L16.3024331,5.47499712 L15.529388,5.50429109 L15.1132751,6.15058929 L14.8469629,5.43105618 L14.8469629,5.43105618 Z M30.2449864,31.8853416 L29.4959833,31.6949308 L30.1044328,31.2207346 L30.0563486,30.4554297 L30.6999364,30.883854 L31.4193492,30.6000686 L31.2085188,31.3379105 L31.702306,31.9292825 L30.9274114,31.9585765 L30.5112986,32.6048747 L30.2449864,31.8853416 L30.2449864,31.8853416 Z M19.7034618,32.8575352 L20.097382,33.5166495 L19.3280356,33.4251058 L18.8157545,34 L18.6659539,33.2475112 L17.955788,32.9435862 L18.6326648,32.5700881 L18.7047911,31.806614 L19.2725539,32.3284129 L20.0289545,32.1618034 L19.7034618,32.8575352 L19.7034618,32.8575352 Z M8.15586893,14.8710379 L7.48823901,15.2628447 L7.58070856,14.5012015 L7,13.9922188 L7.7600994,13.8457489 L8.06709818,13.1408628 L8.44437379,13.8109623 L9.21556955,13.8841973 L8.68849333,14.4462753 L8.85863724,15.1951024 L8.15586893,14.8710379 L8.15586893,14.8710379 Z" id="形状" fill-rule="nonzero"></path>
                <path d="M9.13985411,15.6685303 L8.48147434,16.0573765 L8.57266271,15.3014886 L8,14.796352 L8.74956805,14.6509889 L9.05231329,13.9514292 L9.42436167,14.6164652 L10.1848723,14.6891467 L9.66509887,15.2469774 L9.8328854,15.9901461 L9.13985411,15.6685303 L9.13985411,15.6685303 Z M25.4570935,34.238661 L24.8370129,33.7953037 L25.5665195,33.573625 L25.7999616,32.8486268 L26.2358418,33.4736879 L27,33.4700538 L26.5385871,34.0769446 L26.7793242,34.7983088 L26.0571127,34.5493745 L25.4406796,35 L25.4570935,34.238661 Z M11.304665,10.6317003 L10.5496256,10.7534419 L10.9107314,10.0829548 L10.5605682,9.40701655 L11.3119601,9.54147741 L11.8499712,9 L11.9539259,9.75407086 L12.6360146,10.095674 L11.9484546,10.426375 L11.8335573,11.1804459 L11.304665,10.6317003 L11.304665,10.6317003 Z" id="形状" fill-rule="nonzero"></path>
                <path d="M14.7275652,3.27373867 C20.409042,0.00931641174 27.4339853,0.173254129 32.9570062,3.69915036 L33.8614498,3.17755866 C28.0011864,-0.788007593 20.3920636,-1.06253262 14.2612769,2.47041565 C8.13049008,6.00336392 4.55258303,12.7245652 5.04502432,19.7834111 L5.94946796,19.263669 C5.6669771,12.7142583 9.05031932,6.55125911 14.7275652,3.27373867 Z M32.2726623,33.723967 C26.5922118,36.9900663 19.5672841,36.8282672 14.0432214,33.3041041 L13.1406273,33.8238462 C19.0005662,37.788035 26.6084395,38.0620765 32.7383968,34.529773 C38.868354,30.9974695 42.4463273,24.2777378 41.9552033,17.2198433 L41.0600075,17.7395854 C41.3372647,24.2886965 37.9507197,30.448899 32.2726623,33.723967 L32.2726623,33.723967 Z" id="形状" fill-rule="nonzero"></path>
                <path d="M28.7816798,28.767896 C26.0141608,30.4001205 22.7092831,30.786894 19.6528464,29.8362534 L18.5993106,30.4583818 C22.0955185,31.803498 25.9967885,31.4774923 29.2331883,29.5697725 C32.4695882,27.6620527 34.701383,24.3728781 35.3164981,20.6043123 L34.2629623,21.2245891 C33.533512,24.4057682 31.5494021,27.1362878 28.7816798,28.767896 L28.7816798,28.767896 Z M17.2163186,8.232104 C19.9838376,6.59987951 23.2887153,6.21310603 26.345152,7.16374657 L27.3986878,6.54161819 C23.902267,5.19582525 20.0004756,5.52148776 16.7636138,7.42927323 C13.5267521,9.3370587 11.2946847,12.6266531 10.6796902,16.3956877 L11.7350362,15.7754109 C12.4630794,12.5935637 14.4475651,9.86252671 17.2163186,8.232104 Z M45.5567936,13.535008 C45.413479,13.7089156 45.2412829,13.8555876 45.0481277,13.968276 L8.12006884,35.7409185 C7.21017276,36.2757545 6.04871335,35.9559705 5.5242435,35.0262115 L0.254754329,25.6868791 C0.00250349296,25.2403569 -0.0657817806,24.7095544 0.0649517331,24.2114851 C0.195685247,23.7134158 0.514703777,23.2889732 0.95168092,23.031724 L37.8887908,1.25908149 C38.7986869,0.724245534 39.9601463,1.04402945 40.4846161,1.9737885 L45.7468645,11.3131208 C46.1442734,12.0214701 46.0684338,12.9080185 45.5567936,13.535008 Z M1.13813142,24.0611984 C0.869010248,24.3887383 0.82920902,24.853583 1.03857049,25.223986 L6.30081887,34.5633183 C6.57654682,35.0491635 7.18483468,35.2148602 7.66027827,34.9336328 L44.5973882,13.166545 C45.0723771,12.8845151 45.2343712,12.2623243 44.959428,11.776014 L39.6989898,2.43483009 C39.4239694,1.94921816 38.8162391,1.78345271 38.3413406,2.06451557 L1.40423066,23.833455 C1.30273623,23.8921967 1.21256219,23.969373 1.13813142,24.0611984 Z" id="形状" fill-rule="nonzero"></path>
                <text id="审核通过" transform="translate(23.000000, 18.500000) rotate(-30.000000) translate(-23.000000, -18.500000) " font-family="PingFangSC-Regular, PingFang SC" font-size="9" font-weight="normal">
                    <tspan x="5" y="22">审核通过</tspan>
                </text>
            </g>
        </g>
    </g>
</svg>