<?xml version="1.0" encoding="UTF-8"?>
<svg width="16px" height="16px" viewBox="0 0 16 16" version="1.1" xmlns="http://www.w3.org/2000/svg" xmlns:xlink="http://www.w3.org/1999/xlink">
    <title>positioning_slice</title>
    <g id="患者端" stroke="none" stroke-width="1" fill="none" fill-rule="evenodd">
        <g id="画板" transform="translate(-147.000000, -166.000000)">
            <g id="positioning" transform="translate(147.000000, 166.000000)">
                <path d="M7.99667857,15.9912143 C7.99667857,15.9912143 2,9.30835714 2,5.99669643 C2,2.685125 4.68503571,-2.47801779e-13 7.99667857,-2.47801779e-13 C11.3083929,-2.47801779e-13 13.9933929,2.68514286 13.9933929,5.99669643 C13.9933929,9.30833929 7.99669643,15.9912143 7.99669643,15.9912143 L7.99667857,15.9912143 Z M7.99667857,3.732375 C6.74619643,3.732375 5.73230357,4.74628571 5.73230357,5.99675 C5.73230357,7.24728571 6.74619643,8.26116071 7.99667857,8.26116071 C9.24719643,8.26116071 10.2610714,7.24728571 10.2610714,5.99675 C10.2610714,4.74628571 9.24719643,3.732375 7.99667857,3.732375 L7.99667857,3.732375 Z" id="形状备份" fill="#999999" fill-rule="nonzero" opacity="0.98999995"></path>
                <rect id="矩形" x="0" y="0" width="16" height="16"></rect>
            </g>
        </g>
    </g>
</svg>