<?xml version="1.0" encoding="UTF-8"?>
<svg width="20px" height="20px" viewBox="0 0 20 20" version="1.1" xmlns="http://www.w3.org/2000/svg" xmlns:xlink="http://www.w3.org/1999/xlink">
    <title>形状_slice</title>
    <g id="患者端" stroke="none" stroke-width="1" fill="none" fill-rule="evenodd">
        <g id="画板" transform="translate(-142.000000, -101.000000)" fill="#FFA730" fill-rule="nonzero">
            <path d="M151.964579,101 C146.461294,101 142,105.461294 142,110.964579 C142,116.467865 146.461294,120.929159 151.964579,120.929159 C157.467865,120.929159 161.929159,116.467865 161.929159,110.964579 C161.929159,105.461294 157.467865,101 151.964579,101 L151.964579,101 Z M156.177103,112.676154 L151.222011,112.676154 C150.763695,112.676154 150.392157,112.304616 150.392157,111.8463 L150.392157,105.58191 C150.392157,105.2854 150.550269,105.011394 150.807046,104.863125 C151.063823,104.714856 151.3802,104.714856 151.636977,104.863125 C151.893754,105.011394 152.051913,105.2854 152.051866,105.58191 L152.051866,111.016445 L156.177103,111.016445 C156.481539,111.004561 156.768075,111.160201 156.923827,111.422047 C157.07958,111.683893 157.07958,112.009971 156.923827,112.271818 C156.768075,112.533664 156.481539,112.689303 156.177103,112.677419 L156.177103,112.676154 Z" id="形状"></path>
        </g>
    </g>
</svg>