<?xml version="1.0" encoding="UTF-8"?>
<svg width="20px" height="20px" viewBox="0 0 20 20" version="1.1" xmlns="http://www.w3.org/2000/svg" xmlns:xlink="http://www.w3.org/1999/xlink">
    <title>形状_slice</title>
    <g id="患者端" stroke="none" stroke-width="1" fill="none" fill-rule="evenodd">
        <g id="画板" transform="translate(-16.000000, -604.000000)" fill="#6BCC03" fill-rule="nonzero">
            <path d="M22.1697625,610.232188 C21.7811085,610.232188 21.388679,610.489599 21.388679,610.879591 C21.388679,611.267007 21.7798899,611.526895 22.1697625,611.526895 C22.559615,611.526895 22.8170663,611.265668 22.8170663,610.878253 C22.8170464,610.48836 22.5583765,610.232188 22.1697625,610.232188 L22.1697625,610.232188 Z M25.7938172,611.525637 C26.1850282,611.525637 26.4424595,611.265648 26.4424595,610.878333 C26.4424595,610.48834 26.1850282,610.230929 25.7938172,610.230929 C25.4064017,610.230929 25.0177877,610.487102 25.0177877,610.878333 C25.0177877,611.265648 25.4076403,611.525637 25.7938172,611.525637 L25.7938172,611.525637 Z M27.4772787,613.990042 C27.2198474,613.990042 26.9598591,614.247473 26.9598591,614.506223 C26.9598591,614.76735 27.2198474,615.023503 27.4772787,615.023503 C27.8696083,615.023503 28.1258811,614.76733 28.1258811,614.506223 C28.1258811,614.247473 27.8708469,613.990042 27.4772787,613.990042 L27.4772787,613.990042 Z M30.327761,613.990042 C30.0715882,613.990042 29.8115999,614.248692 29.8115999,614.507362 C29.8115999,614.768588 30.0715882,615.024761 30.327761,615.024761 C30.7176536,615.024761 30.9763034,614.768588 30.9763034,614.507362 C30.9750649,614.247473 30.716415,613.990042 30.327761,613.990042 L30.327761,613.990042 Z M32.1387097,604 L19.8413742,604 C17.7208567,604 16,605.720977 16,607.841374 L16,620.13861 C16,622.259227 17.7196182,623.980024 19.8413742,623.980024 L32.1387097,623.980024 C34.0282641,623.980024 35.600499,622.613842 35.9214941,620.816777 L35.9813424,617.67842 L35.9813424,607.841374 C35.9813424,605.720857 34.2604657,604 32.1387097,604 L32.1387097,604 Z M23.8530642,616.839326 C23.2057603,616.839326 22.6871421,616.709322 22.0397384,616.580676 L20.2289895,617.487968 L20.7476276,615.930815 C19.4504829,615.023543 18.6743135,613.856262 18.6743135,612.434068 C18.6743135,609.969742 21.0062775,608.030228 23.8543027,608.030228 C26.401209,608.030228 28.6306359,609.581088 29.0804765,611.666847 C28.9130573,611.64803 28.7468565,611.636803 28.5806758,611.636803 C26.1199462,611.636803 24.1791932,613.472662 24.1779546,615.73449 C24.1779546,616.113276 24.2366842,616.475662 24.3379828,616.821747 C24.1767161,616.831835 24.0155694,616.839226 23.8530842,616.839226 L23.8530842,616.839326 L23.8530642,616.839326 Z M31.4898876,618.655128 L31.8810986,619.949896 L30.4602222,619.169931 C29.9428226,619.299935 29.4217274,619.428681 28.9068847,619.428681 C26.4424795,619.428681 24.502965,617.746598 24.502965,615.672145 C24.502965,613.601408 26.4424795,611.914251 28.9068847,611.914251 C31.2338147,611.914251 33.3070289,613.601408 33.3070289,615.672145 C33.3057704,616.839326 32.5309794,617.874145 31.4898876,618.655128 L31.4898876,618.655128 Z" id="形状"></path>
        </g>
    </g>
</svg>